<svg width="35" height="35" viewBox="0 0 35 35" fill="none" xmlns="http://www.w3.org/2000/svg">
<path d="M32.6553 8.71574C31.0903 6.03469 28.9674 3.91192 26.2862 2.34704C23.605 0.78224 20.6769 0 17.5015 0C14.3263 0 11.398 0.78224 8.71686 2.34704C6.03528 3.91168 3.91242 6.03445 2.34755 8.71574C0.782276 11.3972 0 14.3251 0 17.5002C0 21.0399 0.964575 24.2532 2.89397 27.1389C4.82328 30.0259 7.35272 32.16 10.4823 33.5424C10.4215 31.917 10.5203 30.5727 10.7783 29.5093L13.0345 19.9839C12.6546 19.2393 12.4647 18.3134 12.4647 17.2039C12.4647 15.913 12.7911 14.8344 13.4444 13.9683C14.0978 13.1023 14.8952 12.6694 15.8372 12.6694C16.5966 12.6694 17.1814 12.92 17.5917 13.4212C18.0022 13.9227 18.2067 14.5531 18.2067 15.3128C18.2067 15.7834 18.119 16.357 17.9442 17.0331C17.7696 17.7091 17.5419 18.4915 17.2608 19.3803C16.9798 20.2687 16.7783 20.9794 16.6569 21.5106C16.4444 22.4371 16.619 23.2308 17.1811 23.892C17.7432 24.5527 18.4878 24.8836 19.4146 24.8836C21.04 24.8836 22.373 23.9798 23.4139 22.1722C24.4546 20.364 24.9746 18.1689 24.9746 15.5865C24.9746 13.5962 24.3328 11.9782 23.0488 10.7329C21.7649 9.48713 19.9762 8.86395 17.682 8.86395C15.1151 8.86395 13.0374 9.68817 11.4498 11.3364C9.86222 12.9848 9.06845 14.956 9.06845 17.2497C9.06845 18.6171 9.45587 19.7642 10.2306 20.6906C10.4888 20.9944 10.5724 21.321 10.4812 21.6706C10.4508 21.7619 10.3901 21.9896 10.2989 22.354C10.2081 22.7183 10.147 22.9543 10.1168 23.0604C9.99543 23.5465 9.70657 23.6984 9.25082 23.516C8.0812 23.0303 7.19229 22.1869 6.58481 20.9868C5.9771 19.7867 5.67316 18.3964 5.67316 16.8169C5.67316 15.7991 5.83654 14.7813 6.16323 13.7636C6.48959 12.7455 6.99874 11.7621 7.68979 10.8126C8.38123 9.8628 9.20916 9.02342 10.1739 8.29457C11.1382 7.56549 12.3119 6.9807 13.6944 6.54014C15.0769 6.09957 16.5656 5.87929 18.1608 5.87929C20.3184 5.87929 22.255 6.35777 23.9714 7.3148C25.6884 8.2719 26.9985 9.50979 27.9025 11.029C28.8066 12.5483 29.2584 14.1739 29.2584 15.9056C29.2584 18.1842 28.8634 20.2349 28.0737 22.058C27.2839 23.8809 26.1672 25.3126 24.7236 26.353C23.2803 27.3939 21.6398 27.9142 19.801 27.9142C18.8746 27.9142 18.0086 27.6976 17.2031 27.2649C16.3982 26.8318 15.8435 26.3194 15.5398 25.7267C14.8561 28.4152 14.4459 30.0182 14.3091 30.5346C14.0205 31.6127 13.4281 32.8586 12.5316 34.2713C14.1572 34.7575 15.813 35 17.4993 35C20.6745 35 23.6028 34.2178 26.284 32.6527C28.9654 31.0882 31.0883 28.9655 32.6529 26.2844C34.2177 23.6028 35 20.6747 35 17.4999C35.0008 14.3251 34.2196 11.3968 32.6553 8.71574Z" fill="#818181"/>
</svg>
