<svg width="35" height="35" viewBox="0 0 35 35" fill="none" xmlns="http://www.w3.org/2000/svg">
<path d="M35 17.5C35 7.83649 27.1635 0 17.5 0C7.83649 0 0 7.83649 0 17.5C0 27.1635 7.83649 35 17.5 35C17.6028 35 17.7051 34.9979 17.8076 34.996V21.373H14.0479V16.9913H17.8076V13.7669C17.8076 10.0275 20.0904 7.99217 23.4262 7.99217C25.0235 7.99217 26.3966 8.11127 26.7969 8.16441V12.0726H24.4967C22.682 12.0726 22.3306 12.9351 22.3306 14.2006V16.9913H26.6698L26.1042 21.373H22.3306V34.3239C29.6453 32.2269 35 25.4879 35 17.5Z" fill="#818181"/>
</svg>
