<svg width="35" height="35" viewBox="0 0 35 35" fill="none" xmlns="http://www.w3.org/2000/svg">
<circle cx="17.5" cy="17.5" r="17.5" fill="#818181"/>
<path d="M26.7891 8.75H7.85322C6.7412 8.75 5.83398 9.65623 5.83398 10.7692V24.2308C5.83398 25.34 6.73716 26.25 7.85322 26.25H26.7891C27.8983 26.25 28.8083 25.3468 28.8083 24.2308V10.7692C28.8083 9.66 27.9052 8.75 26.7891 8.75ZM26.5103 10.0962L17.364 19.2425L8.13855 10.0962H26.5103ZM7.18014 23.952V11.0416L13.6632 17.469L7.18014 23.952ZM8.132 24.9038L14.6191 18.4167L16.8922 20.6703C17.1553 20.9312 17.5799 20.9303 17.842 20.6682L20.0583 18.4519L26.5103 24.9038H8.132ZM27.4622 23.952L21.0102 17.5L27.4622 11.048V23.952Z" fill="white" stroke="#DEDFDF" stroke-width="0.5"/>
</svg>
