<svg width="237" height="80" viewBox="0 0 237 80" fill="none" xmlns="http://www.w3.org/2000/svg">
<path d="M35.0037 28.842H12.5313V23.7262C12.5313 19.2326 14.4915 17.9191 17.4319 17.9191C18.972 17.9191 20.3021 18.1956 21.6323 18.6104L21.9123 12.665C20.5122 12.1811 18.4819 11.6971 15.8217 11.6971C8.68092 11.6971 4.48049 15.4994 4.48049 23.7262V28.842H0V34.7182H4.48049V64.5835H12.5313V34.7182H26.9529V64.5835H35.0037V28.842ZM36.2638 19.7165C36.2638 16.3982 34.3036 14.5316 31.0133 14.5316C27.7229 14.5316 25.7627 16.3982 25.7627 19.7165C25.7627 23.0349 27.7229 24.9706 31.0133 24.9706C34.3036 24.9706 36.2638 23.0349 36.2638 19.7165Z" fill="#0C2C52"/>
<path d="M83.8561 57.1865C82.3858 58.0159 79.7956 58.8453 77.6955 58.8453C73.705 58.8453 72.8649 56.979 72.8649 53.4531V34.7182H86.1663V28.842H72.8649V17.2969L64.8142 18.403V28.842H50.3926V23.7262C50.3926 19.2326 52.3526 17.8499 55.503 17.8499C56.9733 17.8499 58.7933 18.1956 60.2636 18.6795L60.6137 12.9415C59.4234 12.3885 56.6932 11.6971 53.6829 11.6971C46.5421 11.6971 42.3416 15.4994 42.3416 23.7262V28.842H37.8613V34.7182H42.3416V64.5835H50.3926V34.7182H64.8142V54.6285C64.8142 62.233 68.4543 65.4129 75.5251 65.4129C79.3755 65.4129 83.366 64.0997 85.1161 62.9243L83.8561 57.1865Z" fill="#0C2C52"/>
<path d="M95.4263 65.1366L93.956 68.8696C92.4857 72.5337 90.5256 73.778 88.0754 73.778C86.3251 73.778 83.9449 73.2249 82.4046 72.6719L81.6348 78.6175C83.1047 79.3087 86.185 80 88.9153 80C95.3563 80 98.5766 77.0272 101.517 69.1463C106.207 56.8405 111.808 41.9771 116.638 28.842H108.378L99.4864 55.6654H99.4164L90.5256 28.842H81.8448L95.4263 65.1366Z" fill="#0C2C52"/>
<path d="M138.279 44.2172H135.003V52.6511H125.985V44.2172H122.709V64.2379H125.985V55.4996H135.003V64.2379H138.279V44.2172Z" fill="#818181"/>
<path d="M149.241 55.5273H157.67V52.8447H149.241V46.9271H158.23V44.2172H145.965V64.2379H158.65V61.528H149.241V55.5273Z" fill="#818181"/>
<path d="M170.022 44.2172L163.273 64.2379H166.606L168.454 58.7626H175.819L177.723 64.2379H181.307L174.194 44.2172H170.022ZM175.063 56.0527H169.098L172.066 47.2035H172.122L175.063 56.0527Z" fill="#818181"/>
<path d="M190.528 44.2172H187.252V64.2379H199.489V61.5003H190.528V44.2172Z" fill="#818181"/>
<path d="M209.857 64.2379V46.9271H215.878V44.2172H200.504V46.9271H206.581V64.2379H209.857Z" fill="#818181"/>
<path d="M236.999 44.2172H233.723V52.6511H224.706V44.2172H221.43V64.2379H224.706V55.4996H233.723V64.2379H236.999V44.2172Z" fill="#818181"/>
<path d="M131.096 35.8937V21.8044H144.776V13.7574H131.096V0H122.863V13.7574H109.268V21.8044H122.863V35.8937H131.096Z" fill="#F7882F"/>
</svg>
