<svg width="21" height="14" viewBox="0 0 21 14" fill="none" xmlns="http://www.w3.org/2000/svg">
<path d="M12.7388 13.0211L12.7388 13.0211C12.9627 13.2201 13.2514 13.3159 13.534 13.3159C13.8166 13.3159 14.1052 13.2201 14.3291 13.0212L14.3292 13.0211L20.0226 7.95914C20.4819 7.55079 20.4819 6.87526 20.0226 6.46691L14.329 1.40496C13.8869 1.0119 13.1808 1.0119 12.7387 1.40496C12.2794 1.81331 12.2794 2.48885 12.7387 2.8972L16.4222 6.1721H1.87399C1.27309 6.1721 0.734375 6.61135 0.734375 7.21302C0.734375 7.81463 1.27307 8.25395 1.87399 8.25395H16.4222L12.7388 11.5289C12.2795 11.9372 12.2795 12.6127 12.7388 13.0211Z" fill="#5F7771" stroke="#5F7771" stroke-width="0.5"/>
</svg>
